<svg width="90" height="91" viewBox="0 0 90 91" fill="none" xmlns="http://www.w3.org/2000/svg">
<mask id="path-1-inside-1_1_8" fill="white">
<path d="M62.2728 71.9379C57.8399 74.7803 52.774 76.4849 47.5244 76.9003C42.2748 77.3157 37.0039 76.4292 32.179 74.3193C27.3542 72.2095 23.1246 68.9415 19.8654 64.8053C16.6062 60.6691 14.4181 55.7925 13.4952 50.608L21.718 49.1443C22.4 52.9757 24.017 56.5795 26.4255 59.6361C28.8341 62.6928 31.9598 65.1078 35.5253 66.667C39.0909 68.2261 42.9861 68.8813 46.8655 68.5743C50.745 68.2673 54.4887 67.0077 57.7646 64.9071L62.2728 71.9379Z"/>
</mask>
<path d="M62.2728 71.9379C57.8399 74.7803 52.774 76.4849 47.5244 76.9003C42.2748 77.3157 37.0039 76.4292 32.179 74.3193C27.3542 72.2095 23.1246 68.9415 19.8654 64.8053C16.6062 60.6691 14.4181 55.7925 13.4952 50.608L21.718 49.1443C22.4 52.9757 24.017 56.5795 26.4255 59.6361C28.8341 62.6928 31.9598 65.1078 35.5253 66.667C39.0909 68.2261 42.9861 68.8813 46.8655 68.5743C50.745 68.2673 54.4887 67.0077 57.7646 64.9071L62.2728 71.9379Z" fill="#74BC3C" stroke="#FCFCFC" stroke-width="2" mask="url(#path-1-inside-1_1_8)"/>
<mask id="path-2-inside-2_1_8" fill="white">
<path d="M12.7083 45.524C12.7385 40.2617 14.0661 35.088 16.5734 30.4613C19.0807 25.8345 22.6904 21.8976 27.0826 18.9991C31.4749 16.1006 36.5142 14.3301 41.7542 13.8444C46.9942 13.3587 52.273 14.1727 57.1233 16.2145C61.9735 18.2562 66.2453 21.4626 69.5603 25.5496C72.8753 29.6366 75.1313 34.4781 76.1283 39.6453C77.1252 44.8124 76.8325 50.1456 75.276 55.1726C73.7195 60.1996 70.9473 64.7651 67.2049 68.4648L61.1562 62.3462C63.8924 59.6412 65.9192 56.3032 67.0572 52.6278C68.1953 48.9525 68.4093 45.0531 67.6803 41.2753C66.9514 37.4974 65.302 33.9576 62.8783 30.9695C60.4546 27.9813 57.3313 25.637 53.7851 24.1442C50.239 22.6514 46.3794 22.0562 42.5483 22.4114C38.7172 22.7665 35.0328 24.061 31.8214 26.1802C28.6101 28.2993 25.971 31.1778 24.1378 34.5605C22.3046 37.9433 21.334 41.7259 21.3119 45.5734L12.7083 45.524Z"/>
</mask>
<path d="M12.7083 45.524C12.7385 40.2617 14.0661 35.088 16.5734 30.4613C19.0807 25.8345 22.6904 21.8976 27.0826 18.9991C31.4749 16.1006 36.5142 14.3301 41.7542 13.8444C46.9942 13.3587 52.273 14.1727 57.1233 16.2145C61.9735 18.2562 66.2453 21.4626 69.5603 25.5496C72.8753 29.6366 75.1313 34.4781 76.1283 39.6453C77.1252 44.8124 76.8325 50.1456 75.276 55.1726C73.7195 60.1996 70.9473 64.7651 67.2049 68.4648L61.1562 62.3462C63.8924 59.6412 65.9192 56.3032 67.0572 52.6278C68.1953 48.9525 68.4093 45.0531 67.6803 41.2753C66.9514 37.4974 65.302 33.9576 62.8783 30.9695C60.4546 27.9813 57.3313 25.637 53.7851 24.1442C50.239 22.6514 46.3794 22.0562 42.5483 22.4114C38.7172 22.7665 35.0328 24.061 31.8214 26.1802C28.6101 28.2993 25.971 31.1778 24.1378 34.5605C22.3046 37.9433 21.334 41.7259 21.3119 45.5734L12.7083 45.524Z" fill="#E05FC4" stroke="#FCFCFC" stroke-width="2" mask="url(#path-2-inside-2_1_8)"/>
</svg>
